<?xml version="1.0" encoding="UTF-8" standalone="no"?>
<!-- Created with Inkscape (http://www.inkscape.org/) -->

<svg
   xmlns:dc="http://purl.org/dc/elements/1.1/"
   xmlns:cc="http://creativecommons.org/ns#"
   xmlns:rdf="http://www.w3.org/1999/02/22-rdf-syntax-ns#"
   xmlns:svg="http://www.w3.org/2000/svg"
   xmlns="http://www.w3.org/2000/svg"
   xmlns:sodipodi="http://sodipodi.sourceforge.net/DTD/sodipodi-0.dtd"
   xmlns:inkscape="http://www.inkscape.org/namespaces/inkscape"
   version="1.1"
   width="6452.7944"
   height="4193.7812"
   id="svg2"
   xml:space="preserve"
   inkscape:version="0.48.2 r9819"
   sodipodi:docname="logo.svg"><sodipodi:namedview
     pagecolor="#ffffff"
     bordercolor="#666666"
     borderopacity="1"
     objecttolerance="10"
     gridtolerance="10"
     guidetolerance="10"
     inkscape:pageopacity="0"
     inkscape:pageshadow="2"
     inkscape:window-width="1855"
     inkscape:window-height="1189"
     id="namedview3083"
     showgrid="false"
     inkscape:zoom="0.074420546"
     inkscape:cx="-809.87812"
     inkscape:cy="3002.7314"
     inkscape:window-x="0"
     inkscape:window-y="0"
     inkscape:window-maximized="0"
     inkscape:current-layer="svg2"
     fit-margin-top="0"
     fit-margin-left="0"
     fit-margin-right="0"
     fit-margin-bottom="0" /><metadata
     id="metadata8"><rdf:RDF><cc:Work
         rdf:about=""><dc:format>image/svg+xml</dc:format><dc:type
           rdf:resource="http://purl.org/dc/dcmitype/StillImage" /></cc:Work></rdf:RDF></metadata><defs
     id="defs6"><clipPath
       id="clipPath18"><path
         d="m 0,0 14669,0 0,9168 L 0,9168 0,0 z"
         inkscape:connector-curvature="0"
         id="path20" /></clipPath></defs><g
     id="g14"
     transform="matrix(0.98014625,0,0,-0.98014625,-6923.7812,5684.1314)"><g
       clip-path="url(#clipPath18)"
       id="g16"><path
         style="fill:#000000;fill-opacity:1;fill-rule:nonzero;stroke:none"
         d="m 9031.1875,3302.0312 0,287.0938 -329.0313,55.9688 -98.0937,-266.0313 -343.0625,126.0313 98.0312,259.0312 -273.0624,175.0625 -182,-224.0313 -273.0938,238.0313 182.0312,217 -238,259.0937 -238.0937,-133.0312 -182.0313,322 238.0626,147.0938 -112,245.0312 -280.0626,-49 -63,350.0625 c 10e-5,0 280.0626,41.9874 280.0626,70 0,28.0126 -28.0001,371.0312 -28,371.0313 l -266.0626,56.0312 63,350.0938 c 0,0 252.0527,-70.0126 259.0313,-42 7.0178,28.0124 105.0625,322.0625 105.0625,322.0624 l -245.0938,140 182.0313,308 238.125,-133 c 41.9601,63.0431 216.9687,294.1251 216.9687,294.125 l -182.0624,224.0313 280.0624,224 175.0626,-224 139.5624,-268.6563 c 0.9214,-28.3694 0.9653,-57.5566 -0.031,-87.5 -13.085,-391.3624 -150.0335,-482.6811 -234.875,-613.1874 -84.7336,-130.4771 -404.3917,-456.6026 -202.1875,-1304.625 0,0 215.2626,-789.2985 1219.8437,-763.1876 554.4316,14.4104 961.7767,157.958 1226.4996,312.2188 47.15,-13.7342 398.721,-362.7496 687.094,-654.875 l -231.406,-190.875 -189.063,210.0312 -364.031,-175.0312 98.031,-266 -350.1246,-126.0625 -98.0312,259.0313 -315.0312,-35 -7,-266.0626 -364.0313,0 z"
         transform="matrix(1.0202559,0,0,-1.0202559,0,9168.1854)"
         id="path24"
         inkscape:connector-curvature="0" /><g
         transform="scale(1.27532,1.27532)"
         id="g34"><text
   transform="matrix(1,-2e-8,0,-1,6884.46,1966.11)"
   id="text36"><tspan
     x="0 977.28265 2061.5632 3013.1785"
     y="0"
     id="tspan38"
     style="font-size:1426.68994141px;font-variant:normal;font-weight:500;writing-mode:lr-tb;fill:#000000;fill-opacity:1;fill-rule:nonzero;stroke:none;font-family:HelveticaNeue;-inkscape-font-specification:HelveticaNeue-Medium">KOPF</tspan></text>

<text
   transform="matrix(1,-2e-8,0,-1,6940.91,1366.21)"
   id="text40"><tspan
     x="0 640.92291 1121.7972 1588.9637 2109.4846 2630.0046 2830.4268 3350.9468"
     y="0"
     id="tspan42"
     style="font-size:720.94299316px;font-variant:normal;font-weight:500;writing-mode:lr-tb;fill:#000000;fill-opacity:1;fill-rule:nonzero;stroke:none;font-family:HelveticaNeue;-inkscape-font-specification:HelveticaNeue-Medium">MASCHINE</tspan></text>

</g></g></g><rect
     style="fill:none;stroke:none"
     id="rect3085"
     width="9271.6328"
     height="3990.8335"
     x="-8213.7471"
     y="-3990.6167" /></svg>